<?xml version="1.0" encoding="UTF-8" standalone="no"?>
<!-- Created with Inkscape (http://www.inkscape.org/) -->

<svg
   xmlns:dc="http://purl.org/dc/elements/1.1/"
   xmlns:cc="http://creativecommons.org/ns#"
   xmlns:rdf="http://www.w3.org/1999/02/22-rdf-syntax-ns#"
   xmlns:svg="http://www.w3.org/2000/svg"
   xmlns="http://www.w3.org/2000/svg"
   xmlns:xlink="http://www.w3.org/1999/xlink"
   xmlns:sodipodi="http://sodipodi.sourceforge.net/DTD/sodipodi-0.dtd"
   xmlns:inkscape="http://www.inkscape.org/namespaces/inkscape"
   id="svg2"
   version="1.1"
   inkscape:version="0.48.1 "
   width="370"
   height="360"
   sodipodi:docname="gustavorezende_Elephant_black_white_line_art_coloring_book_colouring.svg">
  <metadata
     id="metadata8">
    <rdf:RDF>
      <cc:Work
         rdf:about="">
        <dc:format>image/svg+xml</dc:format>
        <dc:type
           rdf:resource="http://purl.org/dc/dcmitype/StillImage" />
        <dc:title />
      </cc:Work>
    </rdf:RDF>
  </metadata>
  <defs
     id="defs6">
    <linearGradient
       id="linearGradient3827">
      <stop
         style="stop-color:#fff6d1;stop-opacity:1;"
         offset="0"
         id="stop3829" />
      <stop
         style="stop-color:#e1cd7d;stop-opacity:1;"
         offset="1"
         id="stop3831" />
    </linearGradient>
    <linearGradient
       id="linearGradient3775">
      <stop
         style="stop-color:#905128;stop-opacity:1;"
         offset="0"
         id="stop3777" />
      <stop
         style="stop-color:#502d16;stop-opacity:1;"
         offset="1"
         id="stop3779" />
    </linearGradient>
    <linearGradient
       id="linearGradient2991">
      <stop
         style="stop-color:#442713;stop-opacity:1;"
         offset="0"
         id="stop2993" />
      <stop
         style="stop-color:#945429;stop-opacity:1;"
         offset="1"
         id="stop2995" />
    </linearGradient>
    <radialGradient
       inkscape:collect="always"
       xlink:href="#linearGradient2991"
       id="radialGradient2997"
       cx="162.33405"
       cy="65.363045"
       fx="162.33405"
       fy="65.363045"
       r="40.924607"
       gradientTransform="matrix(1.627029,-0.02581007,0.04228571,2.6656284,-104.55207,-104.37545)"
       gradientUnits="userSpaceOnUse" />
    <radialGradient
       inkscape:collect="always"
       xlink:href="#linearGradient3775"
       id="radialGradient3781"
       cx="178.26231"
       cy="101.68455"
       fx="178.26231"
       fy="101.68455"
       r="15.517088"
       gradientTransform="matrix(1.9577756,0.173131,-0.45969601,5.1982697,-123.99132,-457.76188)"
       gradientUnits="userSpaceOnUse" />
    <radialGradient
       inkscape:collect="always"
       xlink:href="#linearGradient3775"
       id="radialGradient3785"
       cx="269.81607"
       cy="96.961769"
       fx="269.81607"
       fy="96.961769"
       r="17.949355"
       gradientTransform="matrix(0.99979778,-0.02010992,0.12854796,6.3909804,-12.409674,-517.29301)"
       gradientUnits="userSpaceOnUse" />
    <radialGradient
       inkscape:collect="always"
       xlink:href="#linearGradient3775"
       id="radialGradient3791"
       cx="192.92825"
       cy="29.200851"
       fx="192.92825"
       fy="29.200851"
       r="31.315707"
       gradientTransform="matrix(0.94032174,-0.01683868,0.02466524,1.3773803,10.635612,-16.926088)"
       gradientUnits="userSpaceOnUse" />
    <radialGradient
       inkscape:collect="always"
       xlink:href="#linearGradient3775"
       id="radialGradient3795"
       cx="259.65738"
       cy="28.482828"
       fx="259.65738"
       fy="28.482828"
       r="32.05274"
       gradientTransform="matrix(0.81004206,0.15741752,-0.25583288,1.3164697,55.868554,-59.904325)"
       gradientUnits="userSpaceOnUse" />
    <radialGradient
       inkscape:collect="always"
       xlink:href="#linearGradient3775"
       id="radialGradient3799"
       cx="220.64062"
       cy="125.20926"
       fx="220.64062"
       fy="125.20926"
       r="36.263975"
       gradientTransform="matrix(1,0,0,2.0500034,0,-142.69741)"
       gradientUnits="userSpaceOnUse" />
    <radialGradient
       inkscape:collect="always"
       xlink:href="#linearGradient3775"
       id="radialGradient3803"
       cx="216.24178"
       cy="258.5098"
       fx="216.24178"
       fy="258.5098"
       r="28.044025"
       gradientTransform="matrix(0.97739933,-0.21140139,0.37777501,1.7466159,-91.811165,-139.32106)"
       gradientUnits="userSpaceOnUse" />
    <radialGradient
       inkscape:collect="always"
       xlink:href="#linearGradient3775"
       id="radialGradient3807"
       cx="269.22128"
       cy="289.30484"
       fx="269.22128"
       fy="289.30484"
       r="36.11976"
       gradientTransform="matrix(1.6379069,-0.52214072,0.19701373,0.61801371,-224.05776,242.1957)"
       gradientUnits="userSpaceOnUse" />
    <radialGradient
       inkscape:collect="always"
       xlink:href="#linearGradient3775"
       id="radialGradient3811"
       cx="185.10098"
       cy="248.39325"
       fx="185.10098"
       fy="248.39325"
       r="42.673283"
       gradientTransform="matrix(0.62473588,-0.10952134,0.64742805,3.6930839,-91.355008,-622.01978)"
       gradientUnits="userSpaceOnUse" />
    <radialGradient
       inkscape:collect="always"
       xlink:href="#linearGradient3775"
       id="radialGradient3815"
       cx="295.91803"
       cy="240.2195"
       fx="295.91803"
       fy="240.2195"
       r="33.09136"
       gradientTransform="matrix(0.67759623,0.01049232,-0.05933349,3.8317718,109.65815,-651.25057)"
       gradientUnits="userSpaceOnUse" />
    <radialGradient
       inkscape:collect="always"
       xlink:href="#linearGradient3775"
       id="radialGradient3819"
       cx="115.37984"
       cy="61.560833"
       fx="115.37984"
       fy="61.560833"
       r="129.57043"
       gradientTransform="matrix(0.43679535,7.7167156e-4,-0.0010176,0.57599293,52.483811,48.146847)"
       gradientUnits="userSpaceOnUse" />
    <radialGradient
       inkscape:collect="always"
       xlink:href="#linearGradient3775"
       id="radialGradient3823"
       cx="91.116409"
       cy="230.97849"
       fx="91.116409"
       fy="230.97849"
       r="39.876581"
       gradientTransform="matrix(0.83364331,0.00503611,-0.01989066,3.2925592,19.624582,-488.20644)"
       gradientUnits="userSpaceOnUse" />
    <radialGradient
       inkscape:collect="always"
       xlink:href="#linearGradient3775"
       id="radialGradient3877"
       cx="167.88387"
       cy="80.018387"
       fx="167.88387"
       fy="80.018387"
       r="14.912518"
       gradientTransform="matrix(1.2655951,-0.02951057,0.05134423,2.2019571,-49.462273,-95.752427)"
       gradientUnits="userSpaceOnUse" />
    <radialGradient
       inkscape:collect="always"
       xlink:href="#linearGradient3775"
       id="radialGradient3881"
       cx="275.17313"
       cy="72.006813"
       fx="275.17313"
       fy="72.006813"
       r="19.004744"
       gradientTransform="matrix(0.59010189,0.46911981,-0.61270137,0.77071194,158.52536,-111.17353)"
       gradientUnits="userSpaceOnUse" />
  </defs>
  <sodipodi:namedview
     pagecolor="#ffffff"
     bordercolor="#666666"
     borderopacity="1"
     objecttolerance="10"
     gridtolerance="10"
     guidetolerance="10"
     inkscape:pageopacity="0"
     inkscape:pageshadow="2"
     inkscape:window-width="1247"
     inkscape:window-height="666"
     id="namedview4"
     showgrid="false"
     inkscape:zoom="2.2723301"
     inkscape:cx="185.43789"
     inkscape:cy="245.54369"
     inkscape:window-x="250"
     inkscape:window-y="250"
     inkscape:window-maximized="0"
     inkscape:current-layer="svg2"
     showguides="true"
     inkscape:guide-bbox="true" />
  <path
     sodipodi:type="arc"
     style="fill:#ffffff;stroke:none"
     id="path3839"
     sodipodi:cx="93.736382"
     sodipodi:cy="322.15338"
     sodipodi:rx="13.642385"
     sodipodi:ry="8.3614616"
     d="m 107.37877,322.15338 a 13.642385,8.3614616 0 1 1 -27.284773,0 13.642385,8.3614616 0 1 1 27.284773,0 z" />
  <path
     sodipodi:type="arc"
     style="fill:#ffffff;stroke:none"
     id="path3841"
     sodipodi:cx="115.96027"
     sodipodi:cy="317.0925"
     sodipodi:rx="7.2612691"
     sodipodi:ry="7.7013459"
     d="m 123.22154,317.0925 a 7.2612691,7.7013459 0 1 1 -14.52254,0 7.2612691,7.7013459 0 1 1 14.52254,0 z" />
  <path
     sodipodi:type="arc"
     style="fill:#ffffff;stroke:none"
     id="path3843"
     sodipodi:cx="69.75219"
     sodipodi:cy="319.51294"
     sodipodi:rx="8.5815001"
     sodipodi:ry="7.4813075"
     d="m 78.33369,319.51294 a 8.5815001,7.4813075 0 1 1 -17.163,0 8.5815001,7.4813075 0 1 1 17.163,0 z" />
  <path
     sodipodi:type="arc"
     style="fill:#ffffff;stroke:none"
     id="path3845"
     sodipodi:cx="168.54945"
     sodipodi:cy="336.45587"
     sodipodi:rx="8.8015385"
     sodipodi:ry="9.9017305"
     d="m 177.35099,336.45587 a 8.8015385,9.9017305 0 1 1 -17.60307,0 8.8015385,9.9017305 0 1 1 17.60307,0 z"
     transform="translate(0.3093019,-1.3403082)" />
  <path
     sodipodi:type="arc"
     style="fill:#ffffff;stroke:none"
     id="path3847"
     sodipodi:cx="189.89319"
     sodipodi:cy="343.05704"
     sodipodi:rx="11.221961"
     sodipodi:ry="5.9410381"
     d="m 201.11515,343.05704 a 11.221961,5.9410381 0 1 1 -22.44392,0 11.221961,5.9410381 0 1 1 22.44392,0 z"
     transform="translate(0.61860379,1.8558114)" />
  <path
     sodipodi:type="arc"
     style="fill:#ffffff;stroke:none"
     id="path3849"
     sodipodi:cx="210.35677"
     sodipodi:cy="341.73682"
     sodipodi:rx="9.6816921"
     sodipodi:ry="7.2612691"
     d="m 220.03846,341.73682 a 9.6816921,7.2612691 0 1 1 -19.36339,0 9.6816921,7.2612691 0 1 1 19.36339,0 z"
     transform="translate(-0.51550316,0.41240253)" />
  <path
     sodipodi:type="arc"
     style="fill:#ffffff;stroke:none"
     id="path3851"
     sodipodi:cx="277.24844"
     sodipodi:cy="326.99423"
     sodipodi:rx="8.8015385"
     sodipodi:ry="8.8015385"
     d="m 286.04998,326.99423 a 8.8015385,8.8015385 0 1 1 -17.60307,0 8.8015385,8.8015385 0 1 1 17.60307,0 z" />
  <path
     sodipodi:type="arc"
     style="fill:#ffffff;stroke:none"
     id="path3853"
     sodipodi:cx="300.79257"
     sodipodi:cy="331.83508"
     sodipodi:rx="12.542192"
     sodipodi:ry="8.8015385"
     d="m 313.33476,331.83508 a 12.542192,8.8015385 0 1 1 -25.08438,0 12.542192,8.8015385 0 1 1 25.08438,0 z"
     transform="matrix(1.0657624,0,0,1,-19.987052,0.10310063)" />
  <path
     sodipodi:type="arc"
     style="fill:#ffffff;stroke:none"
     id="path3855"
     sodipodi:cx="319.49585"
     sodipodi:cy="323.4736"
     sodipodi:rx="7.9213843"
     sodipodi:ry="9.2416153"
     d="m 327.41723,323.4736 a 7.9213843,9.2416153 0 1 1 -15.84276,0 7.9213843,9.2416153 0 1 1 15.84276,0 z" />
  <path
     style="fill:#f9f9f9;stroke:none;stroke-width:1px;stroke-linecap:butt;stroke-linejoin:miter;stroke-opacity:1"
     d="m 326.20202,176.56544 c 0,0 -6.63364,9.22941 -7.78731,9.51783 -1.15368,0.28842 -17.88199,5.19155 -17.88199,5.19155 l -20.47776,-2.88419 -14.99779,-11.24835 -9.80625,-9.22941 2.30735,-25.38088 11.82519,-1.4421 5.19154,4.90312 1.15368,7.4989 6.92206,11.82519 7.78731,6.63364 9.80625,2.88419 13.26728,1.15367 9.22941,-2.30735 z"
     id="path3835"
     inkscape:connector-curvature="0" />
  <path
     style="fill:#ffffff;stroke:none;stroke-width:1px;stroke-linecap:butt;stroke-linejoin:miter;stroke-opacity:1"
     d="m 192.08713,171.95074 -2.88419,-27.68824 -9.51783,0 -9.51783,13.84412 -12.1136,12.69044 -12.40203,6.63364 -11.24834,0.57684 -9.51783,-0.86526 5.76838,7.4989 15.28621,6.34522 19.90092,-1.15368 17.88199,-7.78732 z"
     id="path3825"
     inkscape:connector-curvature="0" />
  <path
     style="fill:#ffffff;stroke:none;stroke-width:1px;stroke-linecap:butt;stroke-linejoin:miter;stroke-opacity:1"
     d="m 284.38125,134.45625 c 0,0 18.1704,0.86526 23.65037,-3.17261 5.47996,-4.03787 12.1136,-24.22721 16.72831,-24.22721 4.6147,0 21.63143,2.30736 25.09246,0 3.46103,-2.30735 6.34522,-13.267275 6.34522,-18.1704 0,-4.903125 0.28842,-8.652574 4.03787,-11.825184 3.74945,-3.172611 8.65257,-6.922059 5.47996,-12.690441 -3.17261,-5.768383 -13.5557,-22.496692 -18.1704,-25.669302 -4.61471,-3.17261 -18.17041,-7.787316 -18.17041,-7.787316 l -20.76617,-14.132537 -30.86085,4.326287 2.88419,12.97886 0.86526,24.515625 6.63364,8.940993 -3.74945,15.863051 -2.30735,17.305144 3.17261,21.34302 z"
     id="path3767"
     inkscape:connector-curvature="0" />
  <path
     style="fill:#000000"
     d="m 189.76142,355.98637 c -2.05622,-0.74999 -5.47179,-2.75647 -7.59016,-4.45884 -3.72902,-2.99673 -3.99633,-3.0565 -8.40077,-1.87849 -6.35553,1.69984 -11.41255,-0.27315 -14.54919,-5.67635 -2.0062,-3.45588 -2.22775,-4.85759 -1.73276,-10.96255 0.31216,-3.85 0.72159,-9.50805 0.90984,-12.57345 0.18826,-3.0654 0.83538,-6.49481 1.43805,-7.62091 0.60266,-1.12609 1.05543,-4.05627 1.00615,-6.5115 -0.0493,-2.45523 0.41598,-5.40874 1.03391,-6.56336 1.4976,-2.7983 1.39591,-6.86187 -0.29357,-11.73078 -0.76339,-2.2 -1.57747,-8.98555 -1.80908,-15.079 -0.41645,-10.95692 -0.46161,-11.13206 -4.09747,-15.8938 L 152,252.22254 l 0,-10.95183 c 0,-8.75082 -0.3517,-11.48614 -1.75,-13.61049 -0.9625,-1.46226 -2.24743,-3.55673 -2.85539,-4.65437 -0.80989,-1.46221 -2.54751,-2.15702 -6.5,-2.59913 -2.96704,-0.33189 -6.79133,-0.91569 -8.49843,-1.29735 l -3.10382,-0.69393 -1.09525,9.64189 c -0.81937,7.21325 -2.65084,14.18255 -7.27108,27.66871 -3.96594,11.57634 -6.35769,20.29259 -6.68409,24.35884 -0.46498,5.79262 -0.18952,6.99615 3.23367,14.12863 4.84812,10.10141 8.52439,20.81205 8.52439,24.83542 0,4.23495 -4.08897,8.2919 -9.17745,9.10558 -2.13452,0.34132 -5.51748,1.92114 -7.51768,3.5107 -2.00021,1.58957 -4.70786,3.15895 -6.01699,3.48753 -4.248324,1.06626 -12.778874,-0.2174 -17.842144,-2.68486 -3.78592,-1.84496 -6.23553,-2.33976 -10.44574,-2.10993 -6.00921,0.32803 -10.45346,-1.83197 -14.21057,-6.90664 -2.99918,-4.05094 -3.39299,-12.40248 -0.89316,-18.94117 1.51974,-3.97512 2.10286,-7.77763 2.10323,-13.71505 3e-4,-4.95132 0.646,-10.11605 1.62526,-13 1.34409,-3.95837 1.42501,-5.56449 0.46843,-9.29756 -0.7253,-2.83052 -1.08037,-11.963 -0.95256,-24.5 l 0.20376,-19.98739 -4.62685,-13 c -10.46731,-29.40982 -11.83944,-33.83952 -12.92965,-41.74113 -0.62673,-4.54238 -1.45685,-8.63283 -1.84472,-9.08989 -0.88313,-1.04069 -7.60487,2.33404 -11.97774,6.01357 -4.38681,3.69125 -8.96543,11.05241 -8.96543,14.41393 0,1.48771 1.12061,5.11211 2.49023,8.05422 2.92973,6.29339 3.22036,12.70098 0.96826,21.34738 -0.84784,3.25506 -1.77861,6.15538 -2.0684,6.44516 -0.28978,0.28978 -1.31194,-0.51391 -2.27147,-1.78598 -1.58894,-2.10651 -1.86513,-2.16762 -3.09561,-0.68499 -0.74305,0.89533 -2.28971,1.536 -3.43701,1.42371 -1.1473,-0.1123 -3.39351,0.15652 -4.99159,0.59738 -2.1111199,0.58239 -3.2048299,0.40251 -3.9999999,-0.65787 -0.60192,-0.80269 -1.93795,-1.77643 -2.96895,-2.16387 -1.67707,-0.63023 -1.82727,-1.57177 -1.42585,-8.93803 0.49449,-9.07414 2.0821,-13.15588 7.28653,-18.73359 2.6504399,-2.84054 3.3886699,-4.61472 3.9180899,-9.41629 1.02254,-9.27384 5.27668,-16.71655 16.47112,-28.81651 5.46127,-5.90304 10.85779,-12.65304 11.99227,-15 1.42062,-2.93895 2.40292,-8.00245 3.15576,-16.2672 0.6012,-6.6 1.7095,-14.7 2.4629,-17.999999 3.80206,-16.653658 10.88802,-32.69613 17.71167,-40.098915 3.49374,-3.790268 17.18956,-13.401085 19.09711,-13.401085 1.45129,0 19.234164,-11.256851 23.732474,-15.023051 3.45847,-2.89559 5.90594,-6.197302 8.36531,-11.285043 1.91208,-3.955548 4.40855,-7.759873 5.54772,-8.4540553 2.80321,-1.7082163 28.59724,-7.8357724 38.78696,-9.21412186 10.18193,-1.37729549 14.83666,-0.3156967 20.31435,4.63306226 3.63278,3.2820017 4.1667,3.4661496 7.09255,2.446195 4.99619,-1.7416812 10.94447,-1.3075465 20.50371,1.4964606 7.8752,2.3100263 10.0866,2.5448493 19.86187,2.1090773 6.05,-0.269704 12.35,-1.050596 14,-1.7353173 1.65,-0.684721 6.61021,-1.2963058 11.02268,-1.3590772 7.44677,-0.1059369 8.38755,0.1199942 13.10535,3.1472955 2.79547,1.793784 5.89251,4.156284 6.88231,5.25 2.24665,2.48252 4.34481,2.47838 12.32875,-0.02433 7.78938,-2.441714 21.83027,-2.726558 26.07974,-0.529073 1.55073,0.801915 5.24089,3.529614 8.20034,6.061555 6.47312,5.538025 13.30546,9.555606 21.37346,12.568099 10.35244,3.865479 23.10641,19.6943 26.63963,33.062183 1.06885,4.043994 1.00744,4.987976 -0.47127,7.244784 -0.93514,1.427207 -3.21149,3.226353 -5.05855,3.998103 -1.84706,0.77175 -3.73692,2.011598 -4.1997,2.755216 -0.46279,0.743619 -0.85522,6.505499 -0.87208,12.804178 l -0.0307,11.452149 -3.5,2.38616 c -2.88135,1.96439 -4.2954,2.28185 -8,1.79606 -15.39829,-2.01923 -14.34417,-2.10123 -18.3645,1.42866 -5.55035,4.87327 -6.07936,6.37803 -3.78314,10.76108 6.35508,12.13065 6.2587,21.68481 -0.38056,37.72357 -3.93629,9.50906 -4.4349,13.03682 -1.7218,12.18219 6.19573,-1.95168 6.14324,-1.95558 6.76011,0.50225 0.83014,3.30753 -0.96296,7.50221 -4.69872,10.99193 -2.88431,2.69435 -3.12982,3.41258 -2.92205,8.54828 0.12476,3.08373 1.15056,9.46975 2.27955,14.19116 2.48319,10.38463 2.06003,18.41816 -1.50049,28.48581 l -2.44077,6.90144 2.47689,7.0894 c 2.07141,5.92881 2.36654,8.11984 1.80281,13.38383 -0.42953,4.01089 -0.21245,8.09558 0.59835,11.25916 1.01437,3.95786 1.02359,5.9356 0.0455,9.75195 -1.04697,4.08507 -0.98604,5.36375 0.41546,8.71799 1.22231,2.92543 1.47393,5.41962 0.98378,9.75196 -0.56555,4.99886 -0.29779,6.58384 1.8955,11.22008 1.40475,2.96939 2.55409,6.97247 2.55409,8.89572 0,7.09981 -3.90331,13.01277 -9.37558,14.20266 -1.71843,0.37366 -4.66669,2.02829 -6.55169,3.67697 -1.885,1.64867 -4.96109,3.63846 -6.83576,4.42175 -3.99595,1.66961 -7.64829,0.81552 -15.82915,-3.70162 -4.44369,-2.45362 -5.84456,-2.74594 -11,-2.2954 -5.0665,0.44277 -6.39386,0.18209 -9.32083,-1.83052 -1.87716,-1.29075 -4.29091,-4.04805 -5.36389,-6.12735 -1.63652,-3.17137 -1.77852,-4.37987 -0.88123,-7.5 0.5883,-2.0457 1.73736,-6.07519 2.55346,-8.95442 1.49661,-5.28004 1.15043,-12.26504 -0.60785,-12.26504 -0.52297,0 -2.86244,1.5664 -5.19881,3.48088 -8.69697,7.12651 -19.13605,9.5857 -31.19592,7.349 -3.791,-0.7031 -7.33509,-1.28996 -7.87576,-1.30412 -1.83509,-0.0481 -2.3565,7.86239 -0.96299,14.60986 0.75372,3.6496 1.49992,9.87384 1.65822,13.83167 0.28054,7.01431 0.20534,7.26973 -2.97797,10.11437 -2.84247,2.54007 -4.04659,2.91834 -9.28983,2.91834 -3.89824,0 -7.33334,0.6605 -9.73423,1.87169 -5.63682,2.84364 -7.38127,3.08813 -11.44874,1.60454 z m 7.32082,-7.53776 c 0.87024,-0.4561 2.12468,-1.48286 2.78764,-2.28169 3.07195,-3.70147 -9.26297,-8.00227 -16.2949,-5.68153 -3.79902,1.25379 -4.18367,2.01888 -2.54984,5.07173 2.36281,4.41494 10.39177,5.86076 16.0571,2.89149 z m 17.01901,-2.49083 c 3.06563,-1.5853 5.01352,-4.95525 4.16036,-7.19764 -1.2399,-3.25885 -13.3491,0.20847 -14.90707,4.26846 -1.55327,4.04776 5.0848,5.85707 10.74671,2.92918 z m -39.8815,-4.26739 c 1.66107,-1.66107 0.0765,-4.18025 -2.62935,-4.18025 -1.3598,0 -2.78028,-0.49821 -3.15661,-1.10713 -0.44397,-0.71836 -0.0257,-0.91061 1.19098,-0.54749 7.18063,2.14299 7.24727,2.12533 9.38776,-2.48811 1.57423,-3.393 1.8811,-3.69336 1.38666,-1.35727 -1.29611,6.12372 -1.47788,5.95377 7.10081,6.6391 4.4,0.3515 9.23292,0.96558 10.73982,1.36463 2.15608,0.57095 2.90178,0.32826 3.5,-1.1391 0.4181,-1.02555 1.88518,-1.95288 3.26018,-2.06074 7.71052,-0.60484 13.2205,-1.71492 13.615,-2.74297 0.24664,-0.64274 -0.46268,-4.96939 -1.57627,-9.61477 -1.1136,-4.64538 -2.02787,-10.34251 -2.03172,-12.66028 -0.006,-3.80992 -0.68115,-4.96093 -7.03531,-12 -6.53756,-7.24224 -10.90493,-14.44985 -13.18119,-21.75334 -1.82423,-5.85312 -2.53672,-23.18959 -1.61726,-39.3517 0.77045,-13.54294 0.66043,-17.71091 -0.64668,-24.5 -0.86629,-4.49946 -1.85856,-14.14333 -2.20504,-21.43083 -0.34649,-7.2875 -0.83195,-13.25 -1.07882,-13.25 -0.24687,0 -2.70421,2.02776 -5.46077,4.50614 -5.77382,5.19117 -13.76322,8.06356 -25.78194,9.26928 -6.67933,0.67007 -7.47477,0.96973 -7.26945,2.73849 0.12681,1.09235 0.40164,6.73607 0.61074,12.54161 0.5739,15.93415 3.54976,19.28886 8.37789,9.44448 1.4836,-3.025 3.05371,-5.5 3.48914,-5.5 1.11769,0 1.08383,0.12018 -1.82223,6.46784 -3.51673,7.68156 -5.35989,14.95823 -5.37422,21.21706 -0.0139,6.06516 1.0821,9.40907 4.05984,12.38681 l 2.15158,2.15158 5.85694,-6.30972 c 6.23307,-6.71494 9.17763,-7.56843 4.1734,-1.20968 -6.45738,8.20523 -7.72721,11.93876 -7.58322,22.29611 0.13013,9.35968 4.15432,28.84193 5.64881,27.34744 0.91577,-0.91576 16.59263,-1.01383 16.02801,-0.10026 -0.25589,0.41405 -2.62802,0.75282 -5.27139,0.75282 -6.18961,0 -9.44092,2.5073 -12.6444,9.75094 -3.33393,7.53861 -3.22343,8.57892 0.81856,7.70648 1.7875,-0.38582 4.9375,-1.55572 7,-2.59978 4.95806,-2.50982 4.84629,-0.84207 -0.13104,1.95535 -4.29491,2.41387 -10.22023,8.54146 -12.4522,12.87727 -1.70682,3.31565 -1.93677,13.22361 -0.35199,15.16605 1.26318,1.54825 9.17091,1.05801 10.90498,-0.67606 z M 307,338.41936 c 4.18622,-2.49176 6,-4.64565 6,-7.1251 0,-1.80548 -2.29039,-3.12334 -8.5,-4.89076 -2.66197,-0.75767 -2.54929,-0.80564 1,-0.42574 2.2,0.23548 5.03577,0.73517 6.30171,1.11042 2.24169,0.66448 2.28446,0.55223 1.64019,-4.30449 l -0.66152,-4.98676 5.15681,-0.68407 c 2.83624,-0.37624 5.36729,-1.2326 5.62455,-1.90302 0.25727,-0.67043 -0.4412,-3.00182 -1.55214,-5.18087 -1.65242,-3.24113 -1.90582,-5.07542 -1.39285,-10.08235 0.47992,-4.68426 0.22834,-6.96066 -1.07212,-9.70118 -1.59092,-3.35263 -6.36021,-6.68311 -9.69576,-6.77074 -1.67447,-0.044 -6.7633,-2.88026 -5.25542,-2.92912 0.6014,-0.0195 3.69169,0.85849 6.86733,1.95107 3.17563,1.09257 6.15441,1.75131 6.61952,1.46386 1.53185,-0.94673 2.7842,-7.43605 1.97773,-10.24803 -1.29397,-4.51182 -5.09735,-11.5095 -7.85514,-14.45234 -1.41739,-1.5125 -2.12707,-2.75 -1.57707,-2.75 0.55,0 2.27805,1.334 3.84011,2.96444 1.56207,1.63045 3.22126,2.72889 3.68709,2.44099 1.2645,-0.78151 1.02212,-9.90152 -0.34838,-13.10838 -0.65745,-1.53838 -3.66345,-6.60894 -6.68,-11.26791 -6.38483,-9.8612 -8.80156,-15.69477 -9.59321,-23.15635 -0.70011,-6.59872 0.51337,-4.21511 2.86477,5.62721 1.91906,8.03267 7.28137,17.70172 9.5828,17.27922 0.8776,-0.16111 2.45779,-3.02877 3.7356,-6.77922 2.63767,-7.74175 2.92635,-17.17542 0.8202,-26.80259 -0.80586,-3.68358 -1.59336,-8.04741 -1.75,-9.69741 -0.32329,-3.40548 -1.08816,-3.50262 -10.99036,-1.39569 -5.52185,1.1749 -17.26505,0.33059 -21.96688,-1.57939 -1.25106,-0.5082 -2.97336,0.97602 -6.83576,5.89082 -2.83982,3.61361 -6.53305,7.54554 -8.20718,8.73763 -2.96118,2.10854 -3.02789,2.33285 -2.45567,8.25703 0.69405,7.1855 3.35236,16.5896 4.68947,16.5896 0.51751,0 1.85922,-1.8 2.98158,-4 1.85405,-3.63425 4,-5.31219 4,-3.12764 0,1.92926 -5.1098,16.36559 -6.59496,18.63222 -1.94941,2.97518 -3.02162,16.93054 -1.5831,20.60478 0.66655,1.70245 2.02609,2.81025 3.91171,3.18737 4.64727,0.92945 7.4437,3.87241 8.33155,8.7681 0.44239,2.43934 1.38886,6.39337 2.10327,8.78672 1.2332,4.13137 1.18029,4.44762 -1.04556,6.25 -1.3963,1.13066 -3.90316,1.89845 -6.19851,1.89845 -5.48798,0 -6.35555,2.05867 -4.90374,11.63628 0.62857,4.14669 0.84434,9.70983 0.4795,12.36254 -0.57433,4.17589 -0.41756,4.87424 1.16825,5.20417 1.48023,0.30795 1.25608,0.66216 -1.16841,1.84642 -4.09713,2.00126 -4.53053,6.01097 -1.02827,9.51323 2.28429,2.28429 3.11381,2.51603 6.81458,1.90377 5.63001,-0.93143 5.71369,-1.01056 5.71369,-5.40298 0,-3.96271 -1.09282,-5.50232 -4.5,-6.33982 -1.19946,-0.29483 -0.56323,-0.53804 1.58948,-0.60761 2.79817,-0.0904 3.84061,-0.66714 4.72857,-2.616 0.62649,-1.375 1.64686,-2.5 2.2675,-2.5 0.70091,0 0.83715,0.663 0.3596,1.75 -0.42286,0.9625 -0.97461,3.504 -1.22612,5.64778 -0.43497,3.70756 -0.34167,3.86363 1.91184,3.19789 1.30302,-0.38495 4.16913,-0.89488 6.36913,-1.13319 l 4,-0.43328 -4.39867,1.46496 c -9.53045,3.17408 -9.78867,6.88065 -0.77181,11.07892 6.33584,2.94997 8.19625,2.99933 12.67048,0.33614 z m 14.63968,-8.36939 c 2.5761,-1.80438 4.63526,-6.56625 4.19231,-9.69489 -0.47177,-3.33225 -3.91842,-3.48453 -7.65747,-0.33834 -2.61135,2.19731 -3.01441,3.11382 -2.55137,5.80148 1.09451,6.35291 2.03935,7.01747 6.01653,4.23175 z m -218.96567,-2.87125 c 5.56416,-2.87735 5.36155,-6.55963 -0.50187,-9.12078 l -3.672144,-1.604 4.851674,0.60462 4.85168,0.60462 -0.35168,-5.09494 -0.35167,-5.09495 1.83341,2.51843 c 1.00837,1.38513 2.80837,2.55395 4,2.59737 1.48595,0.0541 1.69536,0.25832 0.66659,0.64994 -0.825,0.31405 -1.83061,1.06602 -2.23469,1.67105 -1.25067,1.87264 -0.84042,7.35726 0.59142,7.90671 2.08609,0.80051 5.91295,-1.52564 7.61304,-4.62757 1.41514,-2.58201 1.38746,-2.89821 -0.36815,-4.20428 -1.49766,-1.11417 -1.65025,-1.71127 -0.72288,-2.82869 1.4774,-1.78016 -0.53955,-8.12383 -5.74964,-18.08365 -3.57159,-6.8276 -3.62858,-7.12076 -3.59651,-18.5 0.0321,-11.39479 0.0997,-11.72922 4.66042,-23.06246 C 119.19844,239.07181 123,227.39621 123,224.46151 c 0,-4.59151 -7.6283,-6.24254 -15.22976,-3.29625 -5.32295,2.06316 -7.47287,3.88806 -9.829874,8.34383 -2.16037,4.08406 -2.56781,2.43849 -0.57634,-2.32776 1.77962,-4.25923 6.639654,-8.28791 14.385974,-11.92509 7.65158,-3.59271 7.84265,-4.88876 1.95275,-13.2461 -2.99232,-4.24589 -7.44064,-8.39211 -15.215644,-14.18229 -6.04291,-4.50026 -13.17423,-10.57526 -15.84737,-13.5 -5.56061,-6.08397 -12.19551,-15.59527 -11.41997,-16.37081 0.28762,-0.28762 1.94933,1.69989 3.6927,4.41669 4.36322,6.79948 11.22522,12.97223 20.09794,18.07919 8.933404,5.14189 15.315754,11.00515 22.639964,20.7986 2.97858,3.98276 6.75651,7.93478 8.39539,8.78228 4.29785,2.22251 18.86544,3.22734 20.03379,1.38187 1.01957,-1.61047 1.05181,-12.22362 0.048,-15.81089 -0.74949,-2.67847 -1.47972,-3.16103 -8.56893,-5.66257 -7.69213,-2.7143 -17.17333,-12.21739 -14.67842,-14.7123 1.31907,-1.31907 6.54543,0.78248 5.62991,2.26382 -1.20212,1.94508 1.59934,4.92309 7.2342,7.69009 5.34565,2.62498 6.6105,2.82632 17.75566,2.82632 8.98787,0 13.29786,-0.45282 17.17052,-1.80397 6.23628,-2.1758 13.39879,-8.25178 17.02839,-14.44523 2.6337,-4.49407 2.6531,-4.66391 1.54015,-13.48122 -1.21971,-9.66342 -2.24997,-11.76958 -5.75723,-11.76958 -1.63556,0 -3.17955,1.41226 -5.5037,5.03413 -5.39103,8.40119 -23.9415,23.99194 -28.4781,23.93442 -0.55,-0.007 1.33225,-1.37242 4.18277,-3.03434 6.44181,-3.75571 16.69015,-14.57096 15.94487,-16.82689 -2.42765,-7.34841 -5.5969,-20.19042 -5.61069,-22.73488 -0.0196,-3.60882 -1.25518,-4.87187 -5.69402,-5.82041 -4.89194,-1.04536 -8.17843,-4.98202 -8.93773,-10.70588 -0.7924,-5.97346 -2.39754,-7.08015 -8.33429,-5.74625 -4.91163,1.10357 -12.62212,-0.86363 -15.39516,-3.9278 -3.75452,-4.14869 -4.73158,-8.692751 -3.46159,-16.098814 1.44957,-8.453207 1.01311,-9.140176 -9.22533,-14.520326 -7.6244,-4.006505 -10.97499,-7.504247 -10.95662,-11.437818 0.007,-1.438327 1.56496,-6.171977 3.46276,-10.51922 3.47597,-7.962294 6.10483,-17.402864 5.40371,-19.405451 -0.20827,-0.594897 -4.20368,1.386921 -8.87868,4.404039 -4.675004,3.017118 -11.875004,7.275858 -16.000004,9.463866 -15.52142,8.232969 -21.50904,14.438479 -26.96054,27.941625 -8.22443,20.371559 -10.0326,31.843529 -10.03664,63.677639 -0.004,32.39079 0.093,32.89012 13.77789,70.82236 l 4.69003,13 0.0397,18 c 0.0333,15.08751 0.31884,18.51783 1.76463,21.20034 2.0717,3.84382 2.16039,7.28783 0.34249,13.29966 -0.95283,3.15106 -1.12374,6.23532 -0.57014,10.28894 0.86971,6.36834 0.4196,8.56135 -3.42997,16.71106 -1.42888,3.025 -2.60236,6.7375 -2.60773,8.25 -0.01,2.72114 0.059,2.75 6.54126,2.75 6.54167,0 6.55311,-0.005 8.01342,-3.5 2.27912,-5.45472 3.4876,-4.29133 2.76123,2.65821 l -0.64366,6.15821 2.40899,-0.7517 c 1.32495,-0.41344 3.75899,-0.93526 5.40899,-1.1596 l 3,-0.40791 -3.21779,1.2514 c -4.80476,1.86856 -6.99697,4.39076 -5.6671,6.52015 1.977,3.16559 5.59224,4.35129 11.93008,3.91273 3.32485,-0.23007 7.432824,-1.13588 9.128824,-2.01291 z M 92.730966,316.8542 c 0.67703,-0.27392 2.02703,-0.29059 3,-0.0371 0.97297,0.25354 0.41903,0.47766 -1.23097,0.49804 -1.65,0.0204 -2.44606,-0.18706 -1.76903,-0.46099 z M 138.58746,177.14281 c 0.28858,-0.75203 -0.46057,-4.41706 -1.66479,-8.14452 -2.51423,-7.78238 -2.27887,-17.45377 0.62768,-25.79235 2.37945,-6.82637 2.95996,-5.06501 0.95955,2.91143 -1.94607,7.75974 -1.66116,9.98083 2.66564,20.78028 2.15145,5.36991 3.78427,8.05072 5.11553,8.39886 1.83431,0.47968 1.80843,0.59283 -0.41783,1.82705 -3.24782,1.80057 -7.97412,1.81306 -7.28578,0.0192 z m -64.158894,146.7959 c 3.38608,-3.38607 0.4375,-8.42857 -4.92857,-8.42857 -4.4538,0 -7.09742,3.00235 -5.43,6.16681 0.67618,1.28326 1.72454,2.6638 2.32971,3.06788 1.91202,1.27669 6.39629,0.82646 8.02886,-0.80612 z M 243.91809,306.40505 c 3.62005,-0.60779 8.44698,-2.17397 10.72651,-3.48038 4.53589,-2.59955 9.3554,-7.74663 9.3554,-9.99126 0,-0.7828 0.71409,-1.42327 1.58686,-1.42327 0.87278,0 2.06892,-1.27711 2.6581,-2.83802 1.00381,-2.6594 1.36267,-2.81001 5.70194,-2.39306 6.92965,0.66585 7.90453,-1.093 4.54359,-8.19743 -1.44965,-3.06432 -3.00644,-5.57149 -3.45952,-5.57149 -0.45308,0 -2.20665,1.575 -3.89683,3.5 -1.69017,1.925 -3.67179,3.5 -4.40359,3.5 -1.8532,0 -3.73055,2.06988 -3.73055,4.11314 0,1.48199 -0.39802,1.5629 -2.9499,0.59967 -2.40925,-0.90939 -3.27982,-0.81654 -4.75,0.50665 -1.66489,1.49844 -1.97742,1.47593 -4.16088,-0.29967 -1.29844,-1.05588 -3.1418,-1.91979 -4.09637,-1.91979 -2.56266,0 -7.31568,2.59706 -10.0186,5.47418 -1.30508,1.3892 -2.80175,2.52582 -3.32592,2.52582 -0.52418,0 0.90426,-2.01495 3.17431,-4.47766 4.59764,-4.98785 4.71512,-5.33627 2.71952,-8.06542 -1.29394,-1.76957 -1.71871,-1.81405 -5.25,-0.54981 -6.55379,2.34634 -6.9625,2.32338 -3.0829,-0.17318 2.0676,-1.33052 3.99659,-2.65645 4.28666,-2.94651 0.29006,-0.29007 -0.48358,-2.9484 -1.71921,-5.90741 -1.87476,-4.48955 -2.24216,-7.20065 -2.21976,-16.38001 0.0278,-11.40003 1.40868,-17.52946 8.83557,-39.21951 5.39758,-15.76349 10.93555,-38.61381 12.18591,-50.28049 0.57488,-5.36402 0.48656,-5.61653 -3.57213,-10.21325 -4.86032,-5.50463 -13.16679,-9.89964 -24.0563,-12.72838 -4.125,-1.07153 -6.36596,-1.97302 -4.9799,-2.00331 3.21701,-0.0703 16.2882,3.53589 20.25872,5.58912 1.66957,0.86337 5.1923,3.58712 7.82829,6.05277 2.63598,2.46566 5.26524,4.19096 5.84279,3.83401 0.63559,-0.39281 1.0501,-5.21713 1.0501,-12.22156 l 0,-11.57256 -4.25,-4.23365 c -3.97011,-3.95484 -12.0545,-7.50319 -17.09489,-7.50319 -0.84539,0 -1.81519,-0.45 -2.15511,-1 -0.33992,-0.55 -0.18888,-1 0.33565,-1 2.20163,0 14.47161,4.24874 17.59933,6.09414 4.27818,2.52419 5.00594,1.46957 3.69777,-5.35853 -1.65961,-8.66239 -2.14609,-16.03222 -1.30276,-19.735609 0.64285,-2.823031 0.9268,-1.469093 1.46805,6.999999 0.41734,6.53019 1.62208,13.69424 3.1865,18.94864 1.3835,4.64675 2.52235,10.27175 2.53077,12.5 0.0235,6.22113 0.80183,6.878 6.46109,5.45299 3.74934,-0.9441 5.52239,-0.94224 8.15173,0.009 1.84812,0.66829 3.7837,0.95334 4.3013,0.63344 1.88927,-1.16763 5.25625,-12.18884 5.35958,-17.54361 0.0584,-3.025 -0.70525,-7.89653 -1.69692,-10.82561 -1.79906,-5.31381 -1.82362,-15.429299 -0.0544,-22.424389 0.69036,-2.730286 0.65827,-2.75046 -4.37406,-2.75046 -6.12453,0 -10.16363,-1.661937 -10.16363,-4.181954 0,-2.444976 4.57546,-4.642591 6.22713,-2.99092 1.56902,1.569022 2.77287,1.482487 2.77287,-0.199318 0,-0.824458 1.5749,-1.624028 3.94547,-2.003097 4.69974,-0.75152 7.05453,-3.60888 7.05453,-8.560151 0,-2.935637 -0.87817,-4.320858 -5.52492,-8.715017 -5.73403,-5.422332 -9.33542,-11.699788 -7.39884,-12.896662 0.58211,-0.359762 1.30557,0.291165 1.6077,1.446503 0.66886,2.557732 1.86067,2.707036 2.79876,0.350616 1.39844,-3.512795 1.78642,-16.904535 0.59439,-20.516407 -0.73969,-2.241277 -3.78694,-6.047676 -8.09509,-10.111766 -8.46896,-7.989182 -11.01869,-8.67519 -22.982,-6.183327 -4.675,0.973765 -13.225,1.986577 -19,2.250694 -9.3464,0.427452 -11.37761,0.196238 -18.48788,-2.104491 -13.77518,-4.4573453 -22.52751,-2.862727 -31.28593,5.70009 -5.17532,5.059732 -6.28919,8.767386 -5.71845,19.034501 0.29086,5.232363 -0.0402,9.197721 -1.00079,11.985745 -1.90432,5.527329 -0.56669,6.605043 3.93568,3.170923 1.98649,-1.515173 3.79531,-2.571353 4.0196,-2.347066 0.22429,0.224286 -3.14304,4.114528 -7.48294,8.644981 -5.74862,6.001018 -8.07051,9.19544 -8.55294,11.767024 -0.86137,4.591509 0.0484,8.912759 2.64396,12.557834 3.00541,4.220709 1.85233,5.799692 -1.25769,1.722239 -5.09895,-6.685059 -5.51023,-14.298598 -1.12996,-20.917624 1.91762,-2.897716 2.19426,-4.096878 1.41685,-6.141613 -0.74998,-1.97259 -0.42714,-3.851503 1.4435,-8.401288 2.84756,-6.925848 2.92913,-7.723718 0.95699,-9.360449 -0.825,-0.684689 -1.5,-2.083404 -1.5,-3.108256 0,-1.082358 -1.75815,-3.021946 -4.19467,-4.627556 -4.09225,-2.696689 -4.13009,-2.771798 -1.54946,-3.075838 1.45487,-0.171408 3.57678,0.186902 4.71534,0.796244 2.76786,1.481311 4.02879,0.518668 4.02879,-3.07573 0,-4.809486 2.73787,-10.143684 7.26846,-14.161156 L 181.5,9.5055567 178.74606,7.0524218 C 173.4794,2.361036 165.82614,2.6630221 141.4405,8.5244427 125.70443,12.30682 123.76126,13.306142 120.98305,19.045149 c -2.29024,4.731017 -2.86569,6.738799 -5.55563,19.384154 -0.86802,4.080538 -3.33533,11.829588 -5.48291,17.22011 -2.14757,5.390522 -3.64959,10.465706 -3.33781,11.278188 0.31178,0.812482 3.36185,2.407349 6.77794,3.54415 8.09423,2.693587 9.69576,3.90691 12.45836,9.438476 2.17301,4.351041 2.23496,5.017729 1.11267,11.974748 -2.02568,12.557165 1.79767,16.525045 12.74129,13.222945 4.41213,-1.33131 6.4507,-1.50325 8.50514,-0.71735 3.40064,1.30086 5.7979,5.84413 5.7979,10.98812 0,2.18233 0.27127,4.67479 0.60282,5.53881 0.6609,1.72228 7.84299,4.05318 9.44263,3.06455 2.22155,-1.37299 7.29809,-13.37899 8.38522,-19.83099 l 1.15884,-6.877624 1.82846,4.054794 c 2.2972,5.09427 1.73107,8.41052 -3.11088,18.22283 -3.11583,6.3143 -3.6767,8.45667 -3.65442,13.95908 0.0154,3.80875 0.72176,8.1222 1.70599,10.41799 l 1.67967,3.91799 2.00851,-2.15588 c 1.96101,-2.1049 3.87165,-2.83061 8.95316,-3.40063 1.83676,-0.20604 2.43826,-0.8109 2.26728,-2.27995 -3.109,-26.71175 -3.02876,-29.48641 1.24352,-42.999519 1.91275,-6.05 3.48031,-11.389254 3.48346,-11.86501 0.003,-0.475755 -1.14275,-0.112491 -2.54646,0.807254 -1.542,1.010359 -4.01302,1.550648 -6.24289,1.365009 -2.91901,-0.243009 -3.97421,-0.901555 -5.04662,-3.149565 -0.75444,-1.581481 -2.86466,-3.472706 -4.7571,-4.26342 -4.95263,-2.069343 -4.18157,-3.121271 2.34881,-3.204376 5.48625,-0.06982 13.33948,2.527843 14.80347,4.896631 0.95137,1.539342 2.27778,1.020519 2.97045,-1.161884 1.29844,-4.091022 1.67684,-0.929989 0.48394,4.042606 -0.89909,3.74783 -0.92534,5.427259 -0.10036,6.421298 0.84504,1.018214 0.71105,1.682896 -0.55007,2.728778 C 188.75847,95.782842 187,100.96877 187,106.47802 c 0,5.51741 0.55671,5.94673 4.11514,3.17352 2.65186,-2.06669 8.36467,-5.1414 9.55271,-5.1414 0.42194,0 -2.14321,1.9125 -5.70034,4.25 l -6.46751,4.25 0.15943,10.5 c 0.1139,7.50174 0.93835,13.78381 2.88726,22 2.392,10.08421 2.78624,14.11614 3.20226,32.75 0.54773,24.53276 0.30314,24.08994 9.25146,16.74967 7.21126,-5.91539 10.23197,-6.43249 17.11357,-2.92963 5.51681,2.80815 5.32845,4.47705 -0.28445,2.52038 -4.99396,-1.74091 -8.23067,-1.29812 -14.47798,1.98058 -6.94343,3.64405 -10.35155,6.62177 -10.35155,9.0443 0,2.80269 1.48264,3.02045 6.14875,0.9031 2.39319,-1.08596 5.02625,-1.97996 5.85125,-1.98667 0.825,-0.007 -0.82671,1.07113 -3.67048,2.39519 -6.3979,2.97888 -7.34151,4.63927 -6.29284,11.07308 0.45289,2.77861 0.34652,13.18104 -0.23942,23.41423 -1.75071,30.57494 1.17152,42.87499 13.14035,55.30954 9.68217,10.05891 17.32407,12.29981 32.98048,9.67114 z M 234,158.59135 c -0.825,-0.47189 -3.77152,-1.16292 -6.54782,-1.53562 -4.35377,-0.58448 -9.65043,-2.48623 -7.04719,-2.53028 0.49774,-0.008 0.0905,-0.91531 -0.90499,-2.01531 -1.66614,-1.84106 -1.67471,-2 -0.10788,-2 1.63232,0 16.60788,7.74607 16.60788,8.59039 0,0.55446 -0.25307,0.49003 -2,-0.50918 z m -30,-2.55553 c 0,-0.90445 5.91082,-3.52568 7.95034,-3.52568 2.41137,0 2.75806,2.51419 0.46787,3.39301 C 210.55268,156.61902 204,156.72229 204,156.03582 z m 38,-21.25188 c -6.42729,-3.45516 -7.64653,-4.4054 -5,-3.89685 3.13872,0.60313 14,6.91297 14,8.13326 0,0.64556 0.65485,0.95381 -9,-4.23641 z m -35.30223,3.09063 c -1.22159,-1.22158 -0.76489,-2.01282 1.84928,-3.20391 3.65936,-1.66732 5.02438,-1.43925 5.02438,0.83948 0,1.21749 -0.66667,2 -1.70393,2 -0.93716,0 -2.32673,0.23899 -3.08795,0.5311 -0.76121,0.2921 -1.69801,0.2171 -2.08178,-0.16667 z m 16.80931,-33.35298 c -0.35034,-0.56686 0.0511,-0.7345 0.94098,-0.39301 1.73242,0.66479 2.04939,1.38156 0.61096,1.38156 -0.51754,0 -1.21592,-0.44485 -1.55194,-0.98855 z m 29.50823,-15.094782 c 0.008,-1.329167 0.4578,-3.091667 0.99861,-3.916667 0.69179,-1.055325 0.79289,-0.462425 0.34104,2 -0.79139,4.312786 -1.35998,5.126293 -1.33965,1.916667 z m 4.05043,192.048152 c 2.87569,-1.53902 2.35299,-2.79564 -1.46044,-3.51104 -5.92585,-1.1117 -9.76403,2.47205 -4.1053,3.83315 3.23976,0.77927 3.54029,0.76187 5.56574,-0.32211 z m 7.64451,-4.96482 c 0.32156,-1.22963 1.36402,-2 2.70638,-2 2.1762,0 4.58337,-1.68063 4.58337,-3.2 0,-0.44 -1.01916,-0.8 -2.26481,-0.8 -1.24564,0 -3.93253,-0.89385 -5.97086,-1.98633 -2.85262,-1.52891 -4.28847,-1.76489 -6.23519,-1.02475 -2.93159,1.11459 -3.30031,2.83054 -0.77914,3.62599 0.9625,0.30368 2.65,0.96693 3.75,1.47389 1.80647,0.83255 1.78228,0.86633 -0.25,0.34908 -2.59305,-0.65997 -6.25,0.27479 -6.25,1.59757 0,1.31602 5.12042,3.87799 7.84362,3.92451 1.52312,0.026 2.52673,-0.66016 2.86663,-1.95996 z m -17.36339,-2.48971 c 0.81934,-0.81935 1.77699,-2.79769 2.12811,-4.39631 1.19892,-5.45867 6.29743,-7.71082 13.52503,-5.97436 1.2427,0.29856 1.59998,-1.61224 2.08284,-11.13962 0.32056,-6.325 1.13687,-12.6422 1.81402,-14.03822 1.04539,-2.15519 0.8563,-3.66427 -1.25303,-10 -1.36631,-4.10398 -2.80758,-9.71178 -3.20281,-12.46178 -0.39524,-2.75 -1.13039,-5.26654 -1.63367,-5.5923 -0.50328,-0.32577 -4.15332,0.16792 -8.1112,1.09707 l -7.19615,1.68938 -1.82601,4.90292 c -8.80081,23.63061 -10.10111,39.23736 -4.32103,51.86273 2.67861,5.85084 5.01148,7.0329 7.9939,4.05049 z m 11.96357,-69.52525 C 265.70932,202.10105 277,192.52825 277,189.49708 c 0,-1.05735 -2.77969,-3.86268 -6.75,-6.81226 -3.7125,-2.75805 -8.07169,-6.40064 -9.68709,-8.09466 -1.6154,-1.69401 -3.28251,-3.08002 -3.70469,-3.08002 -0.42218,0 -1.0576,1.6875 -1.41206,3.75 -0.35445,2.0625 -2.17484,9.50009 -4.04531,16.52797 -1.87047,7.02788 -3.40085,13.49663 -3.40085,14.375 0,1.93065 2.79335,1.51872 11.31043,-1.66793 z m 53.99096,-19.27622 c 6.379,-3.34515 11.39956,-8.40787 9.8623,-9.94513 -0.59863,-0.59863 -1.7027,-0.54559 -2.99059,0.14367 -3.47151,1.8579 -15.69737,1.28094 -24.00942,-1.13305 -6.10812,-1.77392 -8.50987,-3.07147 -11.83254,-6.39254 -4.43234,-4.43021 -9.98185,-14.53383 -11.1843,-20.36252 -0.68016,-3.297 -0.99707,-3.53892 -5.01811,-3.83074 -7.16128,-0.51971 -8.70981,1.23627 -9.50566,10.77917 -1.11772,13.40249 0.76543,16.87166 14.60798,26.91097 6.68506,4.84834 9.4506,6.05596 16.26895,7.10413 8.5787,1.31878 17.34193,0.11337 23.80139,-3.27396 z m -0.91038,-10.30537 c 0.85503,-0.3281 1.85261,-2.2406 2.21686,-4.25 0.36425,-2.0094 2.41464,-8.02884 4.55642,-13.37653 4.61223,-11.51599 5.96365,-22.60126 3.56919,-29.27692 -0.78911,-2.2 -1.91937,-4 -2.5117,-4 -0.59233,0 -2.47315,1.92739 -4.17961,4.28309 -5.04907,6.97004 -7.9674,8.20883 -19.3484,8.21317 l -9.80623,0.004 -2.08618,4.75 c -1.1474,2.6125 -3.39733,6.66775 -4.99984,9.01166 l -2.91365,4.26166 2.77421,5.09714 c 1.52582,2.80343 4.48015,6.55736 6.56518,8.34207 5.83327,4.99306 20.8549,8.97812 26.16375,6.94092 z M 35.945436,157.57909 c 6.45784,-5.27722 10.21956,-14.53566 6.41442,-15.78734 -1.78045,-0.58566 -19.22925,19.24789 -21.41064,24.33686 -3.23024,7.53585 -2.26144,7.79511 4.42418,1.18394 3.50536,-3.46632 8.26278,-7.84638 10.57204,-9.73346 z m 265.798014,-27.5854 c 6.00982,-1.78473 9.11304,-5.05797 13.40266,-14.13698 4.58805,-9.71061 6.7952,-10.84657 21.07474,-10.84657 10.63925,0 11.91827,-0.19729 13.86021,-2.13799 2.72001,-2.71826 3.5468,-9.576322 1.95463,-16.213231 -1.50846,-6.287965 -0.004,-10.161935 4.46663,-11.498587 C 363.60937,73.035249 364,72.715373 364,69.020681 c 0,-4.306717 -2.54378,-9.79726 -8.77605,-18.942364 -4.9558,-7.272043 -5.25337,-7.481287 -21.25988,-14.949682 -4.14477,-1.933883 -10.139,-5.794032 -13.32052,-8.578108 -3.18152,-2.784076 -7.0805,-5.732103 -8.66441,-6.551171 -4.15565,-2.148973 -15.4399,-1.899568 -23.25399,0.51396 -8.02968,2.480113 -9.32836,3.827704 -7.83026,8.125158 0.60781,1.743563 1.10511,5.101405 1.10511,7.461873 0,2.360468 0.55337,4.633763 1.22972,5.051766 0.67634,0.418003 4.95134,0.631379 9.5,0.474167 4.6103,-0.159342 8.27028,0.123834 8.27028,0.639881 0,0.509146 -2.52298,1.490339 -5.60663,2.180429 -9.53269,2.133323 -14.88894,5.065028 -11.38671,6.232438 0.65283,0.217609 0.58916,1.441657 -0.18114,3.482405 -1.02173,2.706885 -0.91781,3.523341 0.74334,5.839706 5.99971,8.366223 6.53498,11.576904 3.50253,21.009002 -1.06095,3.3 -2.64151,9.910847 -3.51234,14.690772 -1.56532,8.591907 -1.55441,8.802067 0.95884,18.475047 1.48862,5.72939 2.2918,10.92418 1.93804,12.53483 -0.33227,1.5128 -0.31922,3.21153 0.029,3.77495 0.93033,1.50531 8.4008,1.24751 14.25853,-0.49205 z"
     id="path2987"
     inkscape:connector-curvature="0" />
</svg>
